<?xml version="1.0" encoding="UTF-8"?><svg id="b" xmlns="http://www.w3.org/2000/svg" viewBox="0 0 553.97 288.63" width="554" height="289"><defs><style>.d{fill:#ffffff;}.d,.e{stroke-width:0px;}.e{fill:#bc1827;}</style></defs><g id="c"><polygon class="d" points="6.08 227.04 92.89 0 124.56 0 209.96 227.04 189.6 227.04 109.29 20.99 106.75 20.99 26.72 227.04 6.08 227.04"/><path class="d" d="M34.49,227.04l25.73-62.97h19.79l27.01,46.53,34.64-46.53h14.99l25.17,62.97h-18.95l-14.14-43.38s-1.98-1.75-3.11,0c-1.13,1.75-30.54,43.38-30.54,43.38h-15.55l-26.86-44.43s-1.98-2.8-3.39,0c-1.41,2.8-17.53,44.43-17.53,44.43h-17.25Z"/><path class="e" d="M86.75,104.32v14.57l-15.09,10.47v3.64l7.54,3.64v15.03h59.03v-14.57s2.37-3.19,4.14-3.19,4.73-3.64,1.18-5.92c-3.55-2.28-35.06-21.86-35.06-21.86l-8.43,3.64s-2.07-1.37-2.07-5.46h-11.24Z"/><path class="d" d="M284.4,183.41h19.85s7.16-14.97-32.54-19.85c-39.7-4.88-55,10.74-57.27,15.29,0,0-4.23,8.14,4.88,15.62,9.11,7.48,21.48,6.83,27.99,7.16,6.51.33,20.83.65,29.29,1.63,8.46.98,13.34,3.25,6.51,9.11,0,0-8.14,4.56-16.27,4.56s-18.45-.19-32.22-10.74h-19.85s.33,21.15,51.42,20.83c0,0,24.11,2.6,38.58-10.74,0,0,11.86-15.29-8.64-22.78,0,0-12.68-2.6-35.3-3.25,0,0-18.06-.65-20.34-2.28-2.28-1.63-6.83-1.3-3.58-9.11,0,0,2.28-3.25,13.99-3.58,11.71-.33,28.9-.83,33.52,8.14Z"/><polygon class="d" points="307.63 164.21 548.42 164.21 548.42 174.62 358.4 174.62 358.4 227.22 336.92 227.22 336.92 175.28 307.63 175.28 307.63 164.21"/><rect class="d" x="369.79" y="180.16" width="19.85" height="47.06"/><polygon class="d" points="401.03 180.16 424.13 180.16 424.13 216.93 475.55 216.93 475.55 227.02 401.03 227.02 401.03 180.16"/><polygon class="d" points="481.73 180.16 504.13 180.16 504.13 216.93 553.97 216.93 553.97 227.02 481.73 227.02 481.73 180.16"/><path class="d" d="M27.44,281.64h-13.46l-1.87,6.33H0l14.42-38.37h12.93l14.42,38.37h-12.42l-1.92-6.33ZM24.98,273.35l-4.24-13.79-4.19,13.79h8.43Z"/><path class="d" d="M45.41,249.61h15.59l6.01,23.35,5.97-23.35h15.58v38.37h-9.71v-29.26l-7.48,29.26h-8.79l-7.47-29.26v29.26h-9.71v-38.37Z"/><path class="d" d="M94.07,275.28l11.28-.71c.24,1.83.74,3.23,1.49,4.19,1.22,1.55,2.97,2.33,5.23,2.33,1.69,0,3-.4,3.91-1.19.92-.79,1.37-1.71,1.37-2.76s-.44-1.88-1.31-2.67c-.87-.79-2.9-1.53-6.07-2.22-5.2-1.17-8.91-2.72-11.12-4.66-2.23-1.94-3.35-4.41-3.35-7.41,0-1.97.57-3.83,1.71-5.59,1.14-1.75,2.86-3.13,5.16-4.14,2.29-1,5.44-1.5,9.44-1.5,4.9,0,8.64.91,11.22,2.73,2.57,1.82,4.1,4.72,4.59,8.7l-11.18.65c-.3-1.73-.92-2.98-1.87-3.77-.95-.79-2.26-1.18-3.94-1.18-1.38,0-2.42.29-3.11.88-.7.58-1.05,1.3-1.05,2.13,0,.61.29,1.16.86,1.65.56.51,1.88.98,3.98,1.41,5.18,1.12,8.89,2.25,11.14,3.39,2.24,1.14,3.87,2.56,4.89,4.25,1.02,1.69,1.53,3.59,1.53,5.68,0,2.46-.68,4.73-2.04,6.8-1.36,2.08-3.26,3.65-5.71,4.73-2.44,1.07-5.52,1.61-9.24,1.61-6.53,0-11.04-1.26-13.56-3.77-2.51-2.51-3.93-5.71-4.27-9.58Z"/><path class="d" d="M132.15,249.61h36.04v9.47h-12.09v28.89h-11.86v-28.89h-12.09v-9.47Z"/><path class="d" d="M174.03,249.61h11.88v38.37h-11.88v-38.37Z"/><path class="d" d="M194.41,249.61h11.86v28.92h18.5v9.45h-30.36v-38.37Z"/><path class="d" d="M230.17,249.61h11.86v28.92h18.51v9.45h-30.36v-38.37Z"/><path class="d" d="M283.95,287.98v-38.37h19.76c3.66,0,6.47.31,8.4.94,1.94.63,3.5,1.79,4.68,3.49,1.19,1.7,1.78,3.77,1.78,6.22,0,2.13-.45,3.97-1.36,5.51-.91,1.54-2.16,2.8-3.74,3.76-1.01.61-2.4,1.12-4.16,1.52,1.41.47,2.44.94,3.09,1.41.44.31,1.07.99,1.9,2.02.83,1.03,1.38,1.83,1.66,2.38l5.74,11.12h-13.4l-6.34-11.73c-.8-1.52-1.52-2.5-2.15-2.96-.85-.59-1.82-.89-2.9-.89h-1.05v15.57h-11.91ZM295.86,265.16h5c.54,0,1.59-.17,3.14-.52.79-.16,1.43-.56,1.92-1.2.5-.65.75-1.39.75-2.23,0-1.24-.39-2.19-1.18-2.85-.78-.66-2.26-.99-4.42-.99h-5.21v7.8Z"/><path class="d" d="M323.08,268.82c0-6.26,1.75-11.14,5.23-14.63,3.49-3.49,8.35-5.23,14.58-5.23s11.31,1.71,14.76,5.14c3.45,3.43,5.18,8.23,5.18,14.41,0,4.48-.75,8.16-2.26,11.03-1.51,2.87-3.69,5.1-6.54,6.7-2.85,1.6-6.41,2.39-10.67,2.39s-7.91-.69-10.74-2.07c-2.84-1.38-5.13-3.56-6.9-6.54-1.76-2.98-2.64-6.72-2.64-11.2ZM334.94,268.87c0,3.87.72,6.66,2.16,8.35,1.44,1.69,3.4,2.54,5.88,2.54s4.52-.83,5.91-2.49c1.4-1.66,2.09-4.63,2.09-8.92,0-3.61-.73-6.25-2.19-7.92-1.46-1.67-3.43-2.5-5.93-2.5s-4.31.85-5.76,2.54c-1.45,1.69-2.17,4.49-2.17,8.4Z"/><path class="d" d="M367.73,268.82c0-6.26,1.75-11.14,5.23-14.63,3.49-3.49,8.35-5.23,14.58-5.23s11.31,1.71,14.76,5.14c3.46,3.43,5.18,8.23,5.18,14.41,0,4.48-.75,8.16-2.26,11.03-1.51,2.87-3.69,5.1-6.54,6.7-2.85,1.6-6.41,2.39-10.67,2.39s-7.91-.69-10.74-2.07c-2.83-1.38-5.13-3.56-6.9-6.54-1.76-2.98-2.64-6.72-2.64-11.2ZM379.59,268.87c0,3.87.72,6.66,2.16,8.35,1.44,1.69,3.4,2.54,5.88,2.54s4.52-.83,5.91-2.49c1.4-1.66,2.09-4.63,2.09-8.92,0-3.61-.73-6.25-2.19-7.92-1.46-1.67-3.43-2.5-5.93-2.5s-4.31.85-5.76,2.54-2.17,4.49-2.17,8.4Z"/><path class="d" d="M413.93,249.61h29.31v8.24h-17.41v6.7h14.87v7.75h-14.87v15.68h-11.91v-38.37Z"/><path class="d" d="M450.1,249.61h11.88v38.37h-11.88v-38.37Z"/><path class="d" d="M470.57,249.61h11.07l14.45,21.23v-21.23h11.17v38.37h-11.17l-14.37-21.07v21.07h-11.15v-38.37Z"/><path class="d" d="M534.43,274.08v-7.98h18.32v16.36c-3.51,2.39-6.61,4.02-9.3,4.88-2.7.86-5.89,1.3-9.59,1.3-4.55,0-8.27-.78-11.14-2.33-2.87-1.55-5.09-3.86-6.67-6.94-1.58-3.07-2.37-6.6-2.37-10.57,0-4.19.86-7.83,2.59-10.93,1.73-3.1,4.26-5.45,7.59-7.05,2.6-1.24,6.1-1.86,10.5-1.86s7.41.38,9.51,1.15c2.1.77,3.85,1.96,5.23,3.57,1.39,1.61,2.43,3.66,3.13,6.14l-11.44,2.04c-.47-1.45-1.27-2.56-2.39-3.32-1.12-.77-2.56-1.15-4.31-1.15-2.6,0-4.67.9-6.22,2.71-1.54,1.81-2.32,4.66-2.32,8.57,0,4.15.78,7.12,2.34,8.9,1.56,1.78,3.74,2.67,6.53,2.67,1.33,0,2.59-.19,3.8-.58,1.2-.38,2.58-1.04,4.13-1.96v-3.61h-7.93Z"/></g></svg>