<svg xmlns="http://www.w3.org/2000/svg" version="1.1" xmlns:xlink="http://www.w3.org/1999/xlink" width="512" height="512" x="0" y="0" viewBox="0 0 682.667 682.667" style="enable-background:new 0 0 512 512" xml:space="preserve" class=""><g><defs><clipPath id="a" clipPathUnits="userSpaceOnUse"><path d="M0 512h512V0H0Z" fill="#bd1828" opacity="1" data-original="#000000"></path></clipPath></defs><g clip-path="url(#a)" transform="matrix(1.33333 0 0 -1.33333 0 682.667)"><path d="m0 0-170.927-300.231c-17.8-31.266 4.781-70.104 40.758-70.104h403.065c35.977 0 58.557 38.838 40.757 70.104L112.12 53.758c-17.987 31.595-63.526 31.595-81.515 0L19.522 34.291" style="stroke-width:15;stroke-linecap:round;stroke-linejoin:round;stroke-miterlimit:10;stroke-dasharray:none;stroke-opacity:1" transform="translate(184.637 402.442)" fill="none" stroke="#bd1828" stroke-width="15" stroke-linecap="round" stroke-linejoin="round" stroke-miterlimit="10" stroke-dasharray="none" stroke-opacity="" data-original="#000000" opacity="1" class=""></path><path d="m0 0-165.574 290.826c-1.988 3.509-5.056 4.246-7.28 4.246-2.218 0-5.281-.734-7.273-4.233L-381.658-63.148c-1.965-3.442-1.086-6.431-.005-8.327 1.1-1.932 3.254-4.235 7.273-4.235H28.683c4.015 0 6.17 2.3 7.278 4.242 1.076 1.896 1.949 4.877-.005 8.312L19.653-34.52" style="stroke-width:15;stroke-linecap:round;stroke-linejoin:round;stroke-miterlimit:10;stroke-dasharray:none;stroke-opacity:1" transform="translate(428.853 146.652)" fill="none" stroke="#bd1828" stroke-width="15" stroke-linecap="round" stroke-linejoin="round" stroke-miterlimit="10" stroke-dasharray="none" stroke-opacity="" data-original="#000000" opacity="1" class=""></path><path d="M0 0c-11.033 0-19.978 9.071-19.978 20.26v95c0 11.189 8.945 20.26 19.978 20.26 11.033 0 19.978-9.071 19.978-20.26v-95C19.978 9.071 11.033 0 0 0Z" style="stroke-width:15;stroke-linecap:round;stroke-linejoin:round;stroke-miterlimit:10;stroke-dasharray:none;stroke-opacity:1" transform="translate(256 188.425)" fill="none" stroke="#bd1828" stroke-width="15" stroke-linecap="round" stroke-linejoin="round" stroke-miterlimit="10" stroke-dasharray="none" stroke-opacity="" data-original="#000000" opacity="1" class=""></path><path d="M0 0c-11.033 0-19.978 9.071-19.978 20.26 0 11.189 8.945 20.26 19.978 20.26 11.033 0 19.978-9.071 19.978-20.26C19.978 9.071 11.033 0 0 0Z" style="stroke-width:15;stroke-linecap:round;stroke-linejoin:round;stroke-miterlimit:10;stroke-dasharray:none;stroke-opacity:1" transform="translate(256 119.368)" fill="none" stroke="#bd1828" stroke-width="15" stroke-linecap="round" stroke-linejoin="round" stroke-miterlimit="10" stroke-dasharray="none" stroke-opacity="" data-original="#000000" opacity="1" class=""></path><path d="M0 0c6.338 29.242-12.16 58.267-41.358 64.895" style="stroke-width:15;stroke-linecap:round;stroke-linejoin:round;stroke-miterlimit:10;stroke-dasharray:none;stroke-opacity:1" transform="translate(453.948 299.818)" fill="none" stroke="#bd1828" stroke-width="15" stroke-linecap="round" stroke-linejoin="round" stroke-miterlimit="10" stroke-dasharray="none" stroke-opacity="" data-original="#000000" opacity="1" class=""></path><path d="M0 0c11.243 51.867-21.567 103.35-73.358 115.105" style="stroke-width:15;stroke-linecap:round;stroke-linejoin:round;stroke-miterlimit:10;stroke-dasharray:none;stroke-opacity:1" transform="translate(496.223 291.432)" fill="none" stroke="#bd1828" stroke-width="15" stroke-linecap="round" stroke-linejoin="round" stroke-miterlimit="10" stroke-dasharray="none" stroke-opacity="" data-original="#000000" opacity="1" class=""></path><path d="M0 0c-6.338 29.242 12.16 58.267 41.358 64.895" style="stroke-width:15;stroke-linecap:round;stroke-linejoin:round;stroke-miterlimit:10;stroke-dasharray:none;stroke-opacity:1" transform="translate(58.052 299.818)" fill="none" stroke="#bd1828" stroke-width="15" stroke-linecap="round" stroke-linejoin="round" stroke-miterlimit="10" stroke-dasharray="none" stroke-opacity="" data-original="#000000" opacity="1" class=""></path><path d="M0 0c-11.243 51.867 21.567 103.35 73.358 115.105" style="stroke-width:15;stroke-linecap:round;stroke-linejoin:round;stroke-miterlimit:10;stroke-dasharray:none;stroke-opacity:1" transform="translate(15.777 291.432)" fill="none" stroke="#bd1828" stroke-width="15" stroke-linecap="round" stroke-linejoin="round" stroke-miterlimit="10" stroke-dasharray="none" stroke-opacity="" data-original="#000000" opacity="1" class=""></path></g></g></svg>