<svg xmlns="http://www.w3.org/2000/svg" version="1.1" xmlns:xlink="http://www.w3.org/1999/xlink" width="512" height="512" x="0" y="0" viewBox="0 0 511.996 511.996" style="enable-background:new 0 0 512 512" xml:space="preserve" class=""><g><path d="M473.695 187.023v10.156c0 6.191-5.019 11.211-11.211 11.211h0c-6.191 0-11.211-5.019-11.211-11.211v-10.156" style="stroke-width:15;stroke-linecap:round;stroke-linejoin:round;stroke-miterlimit:10;" fill="none" stroke="#bd1828" stroke-width="15" stroke-linecap="round" stroke-linejoin="round" stroke-miterlimit="10" data-original="#000000" opacity="1" class=""></path><path d="M451.274 197.179v6.035c0 7.083-5.742 12.825-12.825 12.825h0a12.825 12.825 0 0 1-12.758-11.514l-.531-17.502M425.691 204.525c0 18.977-15.915 37.628-34.892 37.628h0c-25.348 0-41.97-26.509-30.93-49.326l4.132-8.539M53.741 181.017h86.419M96.952 180.308v-20.734M74.528 181.17s4.922 49.22 64.533 61.252" style="stroke-width:15;stroke-linecap:round;stroke-linejoin:round;stroke-miterlimit:10;" fill="none" stroke="#bd1828" stroke-width="15" stroke-linecap="round" stroke-linejoin="round" stroke-miterlimit="10" data-original="#000000" opacity="1" class=""></path><path d="M119.373 181.17s-4.922 49.22-64.533 61.252M287.396 138.374l-31.398-82.848-31.398 82.848M237.445 117.883h37.424" style="stroke-width:15;stroke-linecap:round;stroke-linejoin:round;stroke-miterlimit:10;" fill="none" stroke="#bd1828" stroke-width="15" stroke-linecap="round" stroke-linejoin="round" stroke-miterlimit="10" data-original="#000000" opacity="1" class=""></path><path d="M304.093 7.5h-96.189c-22.746 0-41.356 18.61-41.356 41.356v96.189c0 22.746 18.61 41.356 41.356 41.356h96.189c22.746 0 41.356-18.61 41.356-41.356V48.856c0-22.746-18.611-41.356-41.356-41.356z" style="stroke-width:15;stroke-linecap:round;stroke-linejoin:round;stroke-miterlimit:10;" fill="none" stroke="#bd1828" stroke-width="15" stroke-linecap="round" stroke-linejoin="round" stroke-miterlimit="10" data-original="#000000" opacity="1" class=""></path><path d="M166.548 145.045v-27.424a41.019 41.019 0 0 0-21.502-6.073h-96.19c-22.746 0-41.356 18.61-41.356 41.356v96.189c0 22.746 18.61 41.356 41.356 41.356h96.189c22.746 0 41.356-18.61 41.356-41.356v-68.765c-11.882-7.287-19.853-20.399-19.853-35.283z" style="stroke-width:15;stroke-linecap:round;stroke-linejoin:round;stroke-miterlimit:10;" fill="none" stroke="#bd1828" stroke-width="15" stroke-linecap="round" stroke-linejoin="round" stroke-miterlimit="10" data-original="#000000" opacity="1" class=""></path><circle cx="255.998" cy="332.67" r="58.175" style="stroke-width:15;stroke-linecap:round;stroke-linejoin:round;stroke-miterlimit:10;" fill="none" stroke="#bd1828" stroke-width="15" stroke-linecap="round" stroke-linejoin="round" stroke-miterlimit="10" data-original="#000000" opacity="1" class=""></circle><path d="M273.498 504.496h62.86c10.039 0 18.177-8.138 18.177-18.177v-30.451c0-35.911-29.112-65.023-65.023-65.023h-67.028c-35.911 0-65.023 29.112-65.023 65.023v30.451c0 10.039 8.138 18.177 18.177 18.177h62.86M504.496 188.476v-35.572c0-22.746-18.61-41.356-41.356-41.356h-96.189a41.014 41.014 0 0 0-21.503 6.074v27.423c0 14.885-7.971 27.996-19.853 35.282v68.765c0 22.746 18.61 41.356 41.356 41.356h96.189c22.746 0 41.356-18.61 41.356-41.356v-25.617" style="stroke-width:15;stroke-linecap:round;stroke-linejoin:round;stroke-miterlimit:10;" fill="none" stroke="#bd1828" stroke-width="15" stroke-linecap="round" stroke-linejoin="round" stroke-miterlimit="10" data-original="#000000" opacity="1" class=""></path></g></svg>